<svg width="10" height="9" viewBox="0 0 9 8" fill="none" xmlns="http://www.w3.org/2000/svg">
<path d="M3.89154 0.00190573C4.19997 0.0532902 4.40913 0.34565 4.35772 0.653957L4.18401 1.69582H5.86973L6.07358 0.46791C6.12498 0.159603 6.41746 -0.0494787 6.72589 0.00190573C7.03431 0.0532902 7.24348 0.34565 7.19207 0.653957L7.02013 1.69582H8.05177C8.36552 1.69582 8.619 1.9492 8.619 2.26282C8.619 2.57644 8.36552 2.82982 8.05177 2.82982H6.83047L6.45291 5.09783H7.48455C7.79829 5.09783 8.05177 5.35121 8.05177 5.66483C8.05177 5.97845 7.79829 6.23183 7.48455 6.23183H6.26324L6.0594 7.45974C6.00799 7.76805 5.71552 7.97713 5.40709 7.92574C5.09866 7.87436 4.8895 7.582 4.9409 7.27369L5.11461 6.2336H3.42889L3.22505 7.46151C3.17364 7.76982 2.88117 7.9789 2.57274 7.92752C2.26431 7.87613 2.05515 7.58377 2.10655 7.27547L2.27672 6.23183H1.24508C0.931335 6.23183 0.677856 5.97845 0.677856 5.66483C0.677856 5.35121 0.931335 5.09783 1.24508 5.09783H2.46639L2.84394 2.82982H1.81231C1.49856 2.82982 1.24508 2.57644 1.24508 2.26282C1.24508 1.9492 1.49856 1.69582 1.81231 1.69582H3.03361L3.23746 0.46791C3.28886 0.159603 3.58134 -0.0494787 3.88976 0.00190573H3.89154ZM3.99435 2.82982L3.61679 5.09783H5.30251L5.68007 2.82982H3.99435Z" fill="black"/>
</svg>
